<svg width="546" height="373" viewBox="0 0 546 373" fill="none" xmlns="http://www.w3.org/2000/svg">
<g clip-path="url(#clip0_12_2)">
<path d="M321.304 273.638C396.973 273.638 458.315 212.382 458.315 136.819C458.315 61.2558 396.973 0 321.304 0C245.635 0 184.293 61.2558 184.293 136.819C184.293 212.382 245.635 273.638 321.304 273.638Z" fill="#F2F2F2"/>
<path d="M77.2736 330.799C80.9952 332.106 84.991 332.433 88.8759 331.75C92.7609 331.066 96.4042 329.395 99.4547 326.898C107.224 320.386 109.66 309.658 111.642 299.725L117.504 270.343L105.231 278.782C96.4045 284.851 87.3796 291.114 81.2684 299.905C75.1572 308.695 72.4897 320.695 77.3999 330.206" fill="#E6E6E6"/>
<path d="M78.3227 366.371C77.0805 357.336 75.8032 348.184 76.6746 339.052C77.4484 330.941 79.9263 323.019 84.971 316.524C87.6487 313.083 90.9069 310.134 94.5993 307.811C95.5621 307.204 96.4483 308.728 95.4896 309.332C89.1008 313.365 84.1593 319.318 81.3776 326.336C78.3052 334.139 77.8118 342.646 78.3413 350.936C78.6614 355.949 79.34 360.929 80.0238 365.903C80.0777 366.128 80.0441 366.365 79.9297 366.566C79.8154 366.767 79.6288 366.917 79.4078 366.986C79.1822 367.047 78.9418 367.017 78.7387 366.901C78.5356 366.786 78.3861 366.596 78.3227 366.371V366.371Z" fill="#F2F2F2"/>
<path d="M160.53 353.926C161.982 355.64 163.853 356.951 165.96 357.733C168.067 358.516 170.341 358.743 172.562 358.393C178.261 357.428 182.556 352.854 186.398 348.541L197.761 335.782L189.291 336.398C183.199 336.842 176.954 337.323 171.412 339.886C165.87 342.449 161.094 347.581 160.763 353.671" fill="#E6E6E6"/>
<path d="M150.777 371.718C152.775 366.918 154.788 362.051 157.853 357.812C160.575 354.046 164.08 350.865 168.435 349.123C170.745 348.202 173.198 347.69 175.684 347.611C176.333 347.59 176.328 348.594 175.683 348.615C171.378 348.759 167.229 350.264 163.836 352.913C160.073 355.866 157.375 359.906 155.242 364.134C153.952 366.691 152.848 369.335 151.749 371.978C151.71 372.104 151.626 372.211 151.511 372.277C151.397 372.343 151.262 372.363 151.133 372.333C151.005 372.298 150.895 372.214 150.829 372.099C150.762 371.984 150.744 371.847 150.777 371.718H150.777Z" fill="#F2F2F2"/>
<path d="M90.2874 350.383C91.8835 352.805 94.0775 354.776 96.6579 356.106C99.2384 357.436 102.118 358.08 105.02 357.976C112.478 357.622 118.696 352.425 124.293 347.49L140.848 332.893L129.891 332.37C122.012 331.993 113.929 331.642 106.425 334.068C98.9198 336.495 91.9984 342.334 90.6261 350.092" fill="#E6E6E6"/>
<path d="M74.8122 371.565C80.7911 361.001 87.7261 349.26 100.118 345.507C103.563 344.467 107.176 344.095 110.762 344.41C111.892 344.507 111.61 346.246 110.482 346.149C104.471 345.651 98.4727 347.236 93.4956 350.637C88.7061 353.892 84.977 358.418 81.8208 363.218C79.8875 366.158 78.1557 369.222 76.4237 372.283C75.8701 373.261 74.2522 372.555 74.8122 371.565V371.565Z" fill="#F2F2F2"/>
<path d="M333.02 191.242C344.908 184.717 359.704 186.026 372.513 190.487C385.322 194.948 396.929 202.257 409.368 207.663C447.378 224.181 493.19 221.517 529.024 200.706C532.413 208.578 528.777 217.582 524.784 225.166C520.79 232.75 516.238 240.97 517.882 249.38C519.986 260.142 531.285 266.594 535.864 276.561C540.21 286.021 537.877 297.132 534.543 306.994C531.209 316.856 526.882 326.791 527.448 337.185C528.015 347.578 535.577 358.568 546 358.577C530.553 360.974 514.802 363.372 499.364 360.916C483.926 358.459 468.57 350.306 461.402 336.433C457.819 329.499 456.438 321.527 452.324 314.893C445.315 303.595 431.865 298.282 419.175 294.278C406.485 290.274 392.904 286.416 383.969 276.567C375.456 267.182 372.759 254.108 368.249 242.273C360.652 222.462 347.458 205.279 330.269 192.813" fill="#0D6EFD"/>
<path d="M346.795 142.071C342.621 140.132 337.498 139.497 333.251 141.298C329.005 143.1 326.11 147.717 327.483 151.804C328.105 153.657 329.523 155.479 328.971 157.35C328.546 158.79 327.063 159.741 325.606 160.417C324.149 161.094 322.556 161.662 321.502 162.802C320.449 163.943 320.229 165.906 321.545 166.79C321.979 167.082 322.521 167.22 322.941 167.527C323.299 167.818 323.558 168.213 323.681 168.657C323.803 169.102 323.784 169.573 323.626 170.006C323.275 170.877 322.696 171.638 321.949 172.209C320.455 173.495 318.481 174.968 318.945 176.794C319.117 177.282 319.405 177.721 319.783 178.075C320.161 178.428 320.62 178.685 321.119 178.824C322.156 179.123 323.231 179.265 324.31 179.245L368.392 180.632C369.848 180.741 371.311 180.659 372.745 180.389C373.442 180.262 374.105 179.993 374.693 179.598C375.281 179.204 375.782 178.692 376.163 178.096C377.007 176.535 376.453 174.613 375.41 173.156C374.368 171.699 372.892 170.55 371.673 169.212C370.454 167.874 369.457 166.204 369.672 164.475C369.844 163.091 370.758 161.894 371.414 160.636C372.07 159.379 372.452 157.807 371.602 156.65C370.404 155.02 367.528 155.167 366.167 153.648C365.139 152.501 365.337 150.851 365.235 149.372C364.989 145.816 362.524 142.457 359.014 140.897C357.229 140.132 355.287 139.802 353.35 139.934C351.412 140.065 349.533 140.655 347.869 141.655L346.795 142.071Z" fill="#2F2E41"/>
<path d="M318.938 365.3L312.034 363.228L316.749 335.649L326.939 338.706L318.938 365.3Z" fill="#A0616A"/>
<path d="M318.688 372.511L296.426 365.832L296.511 365.551C296.853 364.414 297.415 363.356 298.167 362.437C298.918 361.518 299.843 360.755 300.889 360.193C301.936 359.631 303.083 359.28 304.265 359.161C305.447 359.042 306.641 359.156 307.779 359.497L307.78 359.497L321.376 363.577L318.688 372.511Z" fill="#2F2E41"/>
<path d="M384.09 365.533L376.881 365.532L373.451 337.764L384.091 337.765L384.09 365.533Z" fill="#A0616A"/>
<path d="M385.928 372.511L362.683 372.51V372.217C362.683 371.03 362.917 369.855 363.372 368.759C363.826 367.663 364.493 366.667 365.333 365.828C366.173 364.989 367.171 364.323 368.268 363.869C369.366 363.415 370.543 363.182 371.731 363.182H371.731L385.929 363.182L385.928 372.511Z" fill="#2F2E41"/>
<path d="M374.082 344.531C373.453 344.53 372.845 344.306 372.366 343.899C371.888 343.491 371.57 342.927 371.471 342.306L360.767 275.626C360.696 275.185 360.482 274.778 360.159 274.469C359.836 274.159 359.42 273.963 358.976 273.911C358.531 273.858 358.081 273.952 357.694 274.178C357.308 274.404 357.006 274.75 356.834 275.163L329.102 341.832C328.843 342.448 328.362 342.943 327.754 343.22C327.146 343.497 326.456 343.535 325.821 343.326L315.805 339.991C315.181 339.786 314.656 339.355 314.334 338.784C314.011 338.213 313.914 337.542 314.06 336.902L336.787 236.477C336.898 235.994 337.143 235.551 337.493 235.199C337.844 234.847 338.286 234.6 338.77 234.486L369.249 227.421C369.623 227.336 370.012 227.332 370.388 227.41C370.764 227.488 371.119 227.646 371.429 227.872C391.498 242.434 389.803 290.011 386.063 341.672C386.016 342.318 385.733 342.925 385.267 343.377C384.802 343.829 384.186 344.094 383.537 344.122L374.198 344.528C374.16 344.53 374.121 344.531 374.082 344.531Z" fill="#2F2E41"/>
<path d="M348.426 180.291C356.402 180.291 362.868 173.833 362.868 165.868C362.868 157.903 356.402 151.446 348.426 151.446C340.449 151.446 333.983 157.903 333.983 165.868C333.983 173.833 340.449 180.291 348.426 180.291Z" fill="#A0616A"/>
<path d="M349.049 240.618C345.582 240.596 342.164 239.807 339.039 238.307L338.931 238.257L338.889 238.147L325.935 204.631L325.688 198.808C325.606 196.861 325.933 194.918 326.648 193.104C327.363 191.29 328.45 189.646 329.84 188.278C331.23 186.909 332.891 185.847 334.717 185.158C336.543 184.47 338.493 184.171 340.442 184.28L354.195 185.054C357.747 185.256 361.089 186.802 363.54 189.377C365.992 191.953 367.368 195.365 367.388 198.918C367.745 199.603 370.282 204.962 365.311 209.996C365.125 211.142 363.386 223.059 369.948 229.613L370.133 229.797L369.972 230.002C369.867 230.135 361.439 240.616 349.049 240.618Z" fill="#3F3D56"/>
<path d="M368.361 243.146C369.174 242.852 369.912 242.383 370.524 241.773C371.135 241.163 371.606 240.427 371.902 239.616C372.197 238.805 372.312 237.939 372.236 237.079C372.16 236.219 371.897 235.386 371.464 234.638L385.2 218.759L374.372 217.351L362.988 232.647C361.779 233.456 360.91 234.68 360.544 236.087C360.178 237.494 360.342 238.985 361.005 240.28C361.667 241.574 362.782 242.58 364.137 243.109C365.493 243.637 366.996 243.65 368.361 243.146V243.146Z" fill="#A0616A"/>
<path d="M376.949 230.889C376.433 230.889 375.928 230.738 375.497 230.455L368.704 226.005C368.133 225.633 367.728 225.054 367.575 224.39C367.421 223.726 367.531 223.029 367.881 222.444L372.799 214.193C373.065 213.747 373.234 213.249 373.294 212.733C373.354 212.217 373.304 211.694 373.147 211.199C372.99 210.703 372.73 210.247 372.384 209.859C372.038 209.471 371.613 209.161 371.139 208.948L357.01 202.623C355.272 201.835 353.854 200.481 352.987 198.783C352.121 197.086 351.857 195.144 352.24 193.277V193.277C352.504 192.018 353.055 190.837 353.851 189.826C354.647 188.814 355.666 188 356.828 187.445C357.991 186.891 359.265 186.612 360.553 186.63C361.842 186.648 363.108 186.963 364.254 187.55L385.689 198.518C387.135 199.258 388.404 200.301 389.409 201.576C390.414 202.851 391.131 204.328 391.511 205.906C391.891 207.483 391.925 209.124 391.611 210.716C391.297 212.308 390.642 213.814 389.691 215.129L379.094 229.792C378.85 230.132 378.528 230.408 378.155 230.599C377.781 230.79 377.368 230.89 376.949 230.889Z" fill="#3F3D56"/>
<path d="M333.65 163.818C338.211 163.452 341.998 158.902 341.524 154.357C341.471 156.231 342.108 158.058 343.316 159.492C344.524 160.926 346.218 161.867 348.075 162.135C350.167 162.366 352.461 161.733 354.282 162.787C356.299 163.955 356.944 166.79 359.046 167.798C361.076 168.772 363.654 167.443 364.658 165.43C365.661 163.416 365.414 160.996 364.75 158.847C363.802 155.782 362.076 153.014 359.739 150.813C357.403 148.612 354.536 147.052 351.417 146.285C348.298 145.518 345.033 145.57 341.94 146.436C338.847 147.302 336.031 148.953 333.767 151.228C331.849 153.154 330.326 155.609 330.079 158.314C329.832 161.02 331.089 163.955 333.522 165.17L333.65 163.818Z" fill="#2F2E41"/>
<path d="M300.05 123.867C300.811 124.277 301.473 124.848 301.989 125.541C302.505 126.234 302.862 127.031 303.036 127.876C303.21 128.722 303.197 129.595 302.996 130.435C302.796 131.275 302.413 132.06 301.876 132.736L313.142 150.449L302.224 150.263L293.199 133.471C292.122 132.494 291.44 131.156 291.284 129.711C291.128 128.266 291.509 126.814 292.353 125.63C293.198 124.447 294.448 123.613 295.866 123.288C297.285 122.964 298.773 123.17 300.05 123.867V123.867Z" fill="#A0616A"/>
<path d="M309.131 136.481L323.64 170.716L338.851 196.473C339.493 197.56 339.879 198.779 339.981 200.037C340.082 201.296 339.896 202.56 339.436 203.736C338.976 204.912 338.254 205.968 337.326 206.825C336.398 207.681 335.286 208.316 334.076 208.681C332.157 209.25 330.097 209.114 328.269 208.299C326.441 207.484 324.966 206.043 324.109 204.236L294.791 141.68C294.632 141.34 294.547 140.97 294.542 140.595C294.537 140.22 294.612 139.848 294.762 139.504C294.912 139.16 295.134 138.852 295.413 138.6C295.691 138.349 296.021 138.159 296.378 138.044L305.884 134.995C306.065 134.937 306.25 134.898 306.439 134.879C307 134.822 307.565 134.948 308.049 135.236C308.534 135.524 308.913 135.961 309.131 136.481Z" fill="#3F3D56"/>
<path d="M445.138 373H0.588029C0.432074 373 0.282506 372.938 0.172229 372.828C0.0619524 372.718 0 372.569 0 372.413C0 372.257 0.0619524 372.108 0.172229 371.998C0.282506 371.887 0.432074 371.826 0.588029 371.826H445.138C445.294 371.826 445.443 371.887 445.554 371.998C445.664 372.108 445.726 372.257 445.726 372.413C445.726 372.569 445.664 372.718 445.554 372.828C445.443 372.938 445.294 373 445.138 373Z" fill="#CCCCCC"/>
<path d="M351.558 63.543V111.694C351.558 111.85 351.496 111.999 351.386 112.109C351.275 112.219 351.126 112.281 350.97 112.281C350.814 112.281 350.664 112.219 350.554 112.109C350.444 111.999 350.382 111.85 350.382 111.694V63.543C350.382 63.3872 350.444 63.2379 350.554 63.1278C350.664 63.0177 350.814 62.9558 350.97 62.9558C351.126 62.9558 351.275 63.0177 351.386 63.1278C351.496 63.2379 351.558 63.3872 351.558 63.543V63.543Z" fill="#CCCCCC"/>
<path d="M402.614 104.392L385.982 121.001C385.872 121.11 385.722 121.172 385.566 121.172C385.411 121.171 385.261 121.11 385.151 121C385.041 120.89 384.979 120.741 384.979 120.585C384.979 120.43 385.04 120.28 385.15 120.17L401.782 103.561C401.837 103.507 401.902 103.463 401.973 103.434C402.044 103.404 402.121 103.389 402.198 103.389C402.276 103.388 402.352 103.404 402.424 103.433C402.495 103.463 402.56 103.506 402.615 103.56C402.669 103.615 402.713 103.68 402.742 103.751C402.772 103.823 402.787 103.899 402.787 103.976C402.787 104.054 402.772 104.13 402.742 104.201C402.712 104.273 402.669 104.337 402.614 104.392V104.392Z" fill="#CCCCCC"/>
<path d="M299.326 104.392L315.958 121.001C316.068 121.111 316.218 121.173 316.374 121.173C316.53 121.173 316.679 121.111 316.789 121.001C316.9 120.89 316.962 120.741 316.962 120.585C316.962 120.43 316.9 120.28 316.789 120.17L300.158 103.561C300.103 103.507 300.038 103.463 299.967 103.434C299.895 103.404 299.819 103.389 299.741 103.389C299.664 103.388 299.587 103.404 299.516 103.433C299.445 103.463 299.38 103.506 299.325 103.56C299.27 103.615 299.227 103.68 299.197 103.751C299.168 103.823 299.153 103.899 299.153 103.976C299.153 104.054 299.168 104.13 299.198 104.201C299.228 104.273 299.271 104.337 299.326 104.392V104.392Z" fill="#CCCCCC"/>
</g>
<defs>
<clipPath id="clip0_12_2">
<rect width="546" height="373" fill="white"/>
</clipPath>
</defs>
</svg>
