<svg width="894" height="517" viewBox="0 0 894 517" fill="none" xmlns="http://www.w3.org/2000/svg">
<g clip-path="url(#clip0_5_6)">
<path d="M749.874 54.8135C755.634 95.5567 728.094 87.882 708.008 84.7317C703.222 83.9796 694.453 90.4149 691.427 92.1336C689.73 86.0993 689.629 87.6128 685.151 82.5689C687.566 89.2065 680.137 92.1637 682.843 96.0443C676.12 95.5661 673.146 81.2524 679.179 50.0404C681.833 36.3062 688.756 15.2573 717.096 19.9084C747.802 24.95 748.07 42.0555 749.874 54.8135Z" fill="#2F2E41"/>
<path d="M709.232 84.7756C723.261 84.7756 734.633 73.4032 734.633 59.3747C734.633 45.3462 723.261 33.9739 709.232 33.9739C695.204 33.9739 683.831 45.3462 683.831 59.3747C683.831 73.4032 695.204 84.7756 709.232 84.7756Z" fill="#A0616A"/>
<path d="M675.044 50.311L687.211 52.1704C692.577 48.8094 694.621 43.8227 694.876 37.9605L693.652 53.1548L699.468 54.0435C703.264 51.5111 704.96 48.7686 703.939 45.7544L703.225 54.6178C718.726 60.2029 733.752 64.3217 746.437 61.2215C747.091 56.9449 746.896 52.5815 745.863 48.3804C744.83 44.1792 742.98 40.2226 740.418 36.7365C737.856 33.2504 734.633 30.303 730.932 28.0627C727.231 25.8223 723.125 24.3328 718.849 23.6793L712.586 22.7222C708.309 22.0686 703.946 22.2638 699.745 23.2966C695.544 24.3294 691.587 26.1795 688.101 28.7413C684.615 31.3032 681.667 34.5266 679.427 38.2275C677.187 41.9285 675.697 46.0344 675.044 50.311V50.311Z" fill="#2F2E41"/>
<path d="M634.122 217.502H51.1865C47.5784 217.498 44.1193 216.063 41.5681 213.511C39.0168 210.96 37.5816 207.501 37.5775 203.893V83.17C37.5816 79.5619 39.0168 76.1029 41.5681 73.5516C44.1193 71.0003 47.5784 69.5652 51.1865 69.561H634.122C637.73 69.5652 641.189 71.0003 643.74 73.5516C646.292 76.1029 647.727 79.5619 647.731 83.17V203.893C647.727 207.501 646.292 210.96 643.74 213.511C641.189 216.063 637.73 217.498 634.122 217.502Z" fill="#E6E6E6"/>
<path d="M594.778 208.322H60.3681C56.7601 208.318 53.301 206.883 50.7498 204.332C48.1985 201.781 46.7633 198.321 46.7592 194.713V92.3568C46.7633 88.7487 48.1985 85.2896 50.7498 82.7383C53.301 80.1871 56.7601 78.7519 60.3681 78.7477H624.943C628.551 78.7519 632.01 80.1871 634.561 82.7383C637.112 85.2896 638.547 88.7487 638.552 92.3568V164.548C638.539 176.154 633.922 187.28 625.716 195.487C617.51 203.693 606.383 208.309 594.778 208.322V208.322Z" fill="white"/>
<path d="M524.3 125.151H361.547C360.616 125.151 359.723 124.781 359.065 124.123C358.407 123.465 358.037 122.572 358.037 121.641C358.037 120.71 358.407 119.817 359.065 119.159C359.723 118.501 360.616 118.131 361.547 118.131H524.3C525.231 118.131 526.123 118.501 526.782 119.159C527.44 119.817 527.81 120.71 527.81 121.641C527.81 122.572 527.44 123.465 526.782 124.123C526.123 124.781 525.231 125.151 524.3 125.151V125.151Z" fill="#0B6EFD"/>
<path d="M565.494 145.984H320.352C319.421 145.984 318.529 145.614 317.871 144.956C317.212 144.297 316.843 143.405 316.843 142.474C316.843 141.543 317.212 140.65 317.871 139.992C318.529 139.334 319.421 138.964 320.352 138.964H565.494C566.425 138.964 567.318 139.334 567.976 139.992C568.634 140.65 569.004 141.543 569.004 142.474C569.004 143.405 568.634 144.297 567.976 144.956C567.318 145.614 566.425 145.984 565.494 145.984V145.984Z" fill="#E6E6E6"/>
<path d="M565.494 168.939H320.352C319.421 168.939 318.529 168.569 317.871 167.911C317.212 167.253 316.843 166.36 316.843 165.429C316.843 164.498 317.212 163.606 317.871 162.947C318.529 162.289 319.421 161.919 320.352 161.919H565.494C566.425 161.919 567.318 162.289 567.976 162.947C568.634 163.606 569.004 164.498 569.004 165.429C569.004 166.36 568.634 167.253 567.976 167.911C567.318 168.569 566.425 168.939 565.494 168.939V168.939Z" fill="#E6E6E6"/>
<path d="M359.383 89.694H357.383V12.651H502.04V14.651H359.383V89.694Z" fill="#3F3D56"/>
<path d="M563.213 -3.05176e-05H510.213C506.765 -3.05176e-05 503.458 1.36961 501.02 3.80759C498.582 6.24556 497.213 9.55216 497.213 13C497.213 16.4478 498.582 19.7544 501.02 22.1924C503.458 24.6303 506.765 26 510.213 26H563.213C566.66 26 569.967 24.6303 572.405 22.1924C574.843 19.7544 576.213 16.4478 576.213 13C576.213 9.55216 574.843 6.24556 572.405 3.80759C569.967 1.36961 566.66 -3.05176e-05 563.213 -3.05176e-05V-3.05176e-05Z" fill="#0B6EFD"/>
<path d="M357.223 102.78C363.82 102.78 369.169 97.432 369.169 90.8344C369.169 84.2369 363.82 78.8885 357.223 78.8885C350.625 78.8885 345.277 84.2369 345.277 90.8344C345.277 97.432 350.625 102.78 357.223 102.78Z" fill="#E6E6E6"/>
<path d="M789.981 495.189H778.943L773.69 452.616H789.981V495.189Z" fill="#A0616A"/>
<path d="M795.807 514.314H787.891L786.478 506.84L782.86 514.314H761.866C760.859 514.314 759.879 513.992 759.069 513.396C758.258 512.799 757.659 511.959 757.36 510.999C757.061 510.038 757.076 509.007 757.404 508.055C757.732 507.104 758.356 506.283 759.184 505.711L775.949 494.132V486.577L793.583 487.63L795.807 514.314Z" fill="#2F2E41"/>
<path d="M713.981 495.189H702.943L697.69 452.616H713.981V495.189Z" fill="#A0616A"/>
<path d="M719.807 514.314H711.891L710.478 506.84L706.86 514.314H685.866C684.859 514.314 683.879 513.992 683.069 513.396C682.258 512.799 681.659 511.959 681.36 510.999C681.061 510.038 681.076 509.007 681.404 508.055C681.732 507.104 682.356 506.283 683.184 505.711L699.949 494.132V486.577L717.583 487.63L719.807 514.314Z" fill="#2F2E41"/>
<path d="M818.469 247.799C819.245 246.708 819.772 245.46 820.014 244.143C820.256 242.827 820.205 241.473 819.867 240.178C819.529 238.882 818.911 237.677 818.057 236.646C817.202 235.615 816.132 234.785 814.922 234.212L788.013 155.46L771.982 163.874L802.367 239.133C801.54 241.23 801.511 243.558 802.286 245.674C803.06 247.791 804.584 249.55 806.569 250.618C808.554 251.686 810.861 251.989 813.055 251.47C815.248 250.95 817.174 249.644 818.469 247.799H818.469Z" fill="#A0616A"/>
<path d="M650.172 282.956C651.455 282.573 652.639 281.913 653.639 281.024C654.639 280.134 655.433 279.036 655.963 277.807C656.493 276.577 656.747 275.247 656.707 273.909C656.667 272.57 656.335 271.257 655.733 270.061L682.956 191.417L665.14 188.191L642.806 266.219C640.865 267.364 639.411 269.181 638.719 271.326C638.028 273.472 638.148 275.796 639.056 277.859C639.963 279.922 641.597 281.58 643.646 282.52C645.695 283.459 648.017 283.614 650.172 282.956V282.956Z" fill="#A0616A"/>
<path d="M693.106 236C693.106 236 764.099 217.875 761.106 224C761.106 224 783.026 217.216 786.071 262.444L785.106 353L789.068 423.696C789.068 423.696 786.653 429.45 789.362 428.947C792.071 428.444 789.807 436.887 789.807 436.887C789.807 436.887 787.526 445.873 790.298 445.659C793.071 445.444 791.071 459.444 791.071 459.444H773.071L738.582 304.446L723.106 361C723.106 361 723.958 367.061 722.514 367.252C721.071 367.444 722.084 371.801 722.084 371.801L721.542 377.526L714.071 456.444L697.071 457.444C697.071 457.444 696.937 455.712 697.071 451.444C697.17 448.273 698.146 443.207 695.573 439.032C692.716 434.394 691.058 429.028 694.385 423.119C696.688 419.028 693.696 413.395 693.34 408.071C691.094 374.481 688.678 329.654 688.748 293.018C688.751 291.556 686.467 287.901 688.769 288.672C691.071 289.444 688.8 285.375 688.823 283.757C688.868 280.757 691.964 275.526 689.017 274.985C686.071 274.444 689.11 272.109 689.165 270.706C689.746 255.891 690.974 243.692 693.106 236Z" fill="#2F2E41"/>
<path d="M725.106 88L696.106 91L693.296 104.521L665.772 121.333L675.296 147.088C675.296 147.088 667.559 173.167 689.428 183.628L697.106 206L694.401 221.894L693.65 226.305C695.569 229.868 695.906 232.486 692.529 232.89L691.44 239.29C686.599 242.092 686.764 247.072 689.106 253L786.106 263C790.097 249.971 768.563 206.951 757.106 203L758.598 138.728L761.071 96.444L728.071 99.444L725.106 88Z" fill="#3F3D56"/>
<path d="M753.521 98.342C754.868 97.3683 756.418 96.7116 758.055 96.4208C759.692 96.1301 761.373 96.2128 762.974 96.6629C764.574 97.113 766.052 97.9187 767.298 99.02C768.543 100.121 769.524 101.49 770.166 103.023L787.423 144.207C790.686 145.387 796.049 155.427 794.106 158C794.147 160.72 793.204 158.744 795.839 162.518C798.841 162.731 799.624 163.994 797.553 166.607L797.106 170L798.328 170.23C801.599 170.347 801.768 171.566 799.727 173.569C800.404 173.976 800.923 174.6 801.201 175.34C801.479 176.079 801.498 176.891 801.257 177.643L799.071 184.444L782.071 192.444L754.106 140L749.592 111.005C748.787 108.754 748.735 106.302 749.443 104.018C750.152 101.734 751.583 99.7424 753.521 98.342V98.342Z" fill="#3F3D56"/>
<path d="M676.019 122.465C674.491 121.143 672.602 120.307 670.596 120.067C668.59 119.826 666.557 120.191 664.76 121.115C662.963 122.039 661.483 123.479 660.511 125.25C659.538 127.022 659.118 129.044 659.304 131.056C660.65 145.606 662.083 161.088 662.083 161.088L659.736 201.409L681.106 206L681.931 200.218L684.106 199L682.582 195.655C682.967 195.693 683.356 195.635 683.713 195.485C684.07 195.336 684.384 195.101 684.628 194.801C684.872 194.5 685.037 194.144 685.11 193.764C685.182 193.384 685.159 192.992 685.043 192.623L683.647 188.191C683.866 188.369 684.137 188.471 684.419 188.482C684.701 188.493 684.979 188.412 685.211 188.252C685.444 188.092 685.618 187.861 685.707 187.593C685.797 187.326 685.798 187.036 685.71 186.769L684.412 182.836L690.083 143.088L677.844 124.545C677.334 123.771 676.719 123.072 676.019 122.465V122.465Z" fill="#3F3D56"/>
<path d="M431.383 198.306H429.383V275.349H574.04V273.349H431.383V198.306Z" fill="#3F3D56"/>
<path d="M648.213 275C648.209 271.553 646.839 268.248 644.401 265.811C641.964 263.374 638.659 262.003 635.213 262H582.213C578.765 262 575.458 263.37 573.02 265.808C570.582 268.246 569.213 271.552 569.213 275C569.213 278.448 570.582 281.754 573.02 284.192C575.458 286.63 578.765 288 582.213 288H635.213C638.659 287.997 641.964 286.626 644.401 284.189C646.839 281.751 648.209 278.447 648.213 275V275Z" fill="#0B6EFD"/>
<path d="M431.223 205.78C437.82 205.78 443.169 200.432 443.169 193.834C443.169 187.237 437.82 181.889 431.223 181.889C424.625 181.889 419.277 187.237 419.277 193.834C419.277 200.432 424.625 205.78 431.223 205.78Z" fill="#E6E6E6"/>
<path d="M216.83 199.306H218.83V276.349H74.173V274.349H216.83V199.306Z" fill="#3F3D56"/>
<path d="M13 289H66C69.4478 289 72.7544 287.63 75.1924 285.192C77.6304 282.754 79 279.448 79 276C79 272.552 77.6304 269.246 75.1924 266.808C72.7544 264.37 69.4478 263 66 263H13C9.55219 263 6.24559 264.37 3.80762 266.808C1.36964 269.246 0 272.552 0 276C0 279.448 1.36964 282.754 3.80762 285.192C6.24559 287.63 9.55219 289 13 289Z" fill="#0B6EFD"/>
<path d="M219.223 205.111C225.82 205.111 231.169 199.763 231.169 193.166C231.169 186.568 225.82 181.22 219.223 181.22C212.625 181.22 207.277 186.568 207.277 193.166C207.277 199.763 212.625 205.111 219.223 205.111Z" fill="#E6E6E6"/>
<path d="M858.964 515.347H825.777L825.635 515.089C825.21 514.319 824.801 513.504 824.418 512.666C821 505.347 819.555 496.977 818.28 489.593L817.32 484.026C817.204 483.352 817.291 482.658 817.571 482.034C817.851 481.41 818.312 480.884 818.893 480.523C819.474 480.162 820.149 479.982 820.833 480.007C821.516 480.033 822.177 480.261 822.73 480.664C827.773 484.334 832.819 488 837.866 491.663C839.777 493.053 841.96 494.663 844.05 496.402C844.252 495.423 844.463 494.44 844.674 493.471C844.819 492.802 845.161 492.192 845.655 491.719C846.15 491.245 846.774 490.93 847.448 490.813C848.123 490.697 848.817 490.784 849.442 491.064C850.066 491.344 850.593 491.804 850.955 492.385L854.837 498.624C857.669 503.179 860.169 507.669 859.66 512.51C859.662 512.569 859.658 512.628 859.646 512.686C859.545 513.482 859.356 514.263 859.083 515.017L858.964 515.347Z" fill="#F0F0F0"/>
<path d="M892.273 516.065L576.916 516.372C576.601 516.371 576.3 516.245 576.078 516.022C575.856 515.798 575.731 515.497 575.731 515.182C575.731 514.867 575.856 514.565 576.078 514.342C576.3 514.119 576.601 513.993 576.916 513.991L892.273 513.684C892.588 513.685 892.889 513.812 893.111 514.035C893.333 514.258 893.458 514.56 893.458 514.875C893.458 515.189 893.333 515.491 893.111 515.714C892.889 515.937 892.588 516.064 892.273 516.065V516.065Z" fill="#CACACA"/>
<path d="M104.106 179.346C123.989 179.346 140.106 163.229 140.106 143.346C140.106 123.464 123.989 107.346 104.106 107.346C84.224 107.346 68.1063 123.464 68.1063 143.346C68.1063 163.229 84.224 179.346 104.106 179.346Z" fill="#F2F2F2"/>
<path d="M240.507 124.962H216.754C215.823 124.962 214.93 124.592 214.272 123.934C213.614 123.276 213.244 122.383 213.244 121.452C213.244 120.522 213.614 119.629 214.272 118.971C214.93 118.312 215.823 117.943 216.754 117.943H240.507C241.438 117.943 242.33 118.312 242.989 118.971C243.647 119.629 244.017 120.522 244.017 121.452C244.017 122.383 243.647 123.276 242.989 123.934C242.33 124.592 241.438 124.962 240.507 124.962Z" fill="#0B6EFD"/>
<path d="M281.701 145.795H175.559C174.629 145.795 173.736 145.425 173.078 144.767C172.419 144.109 172.05 143.216 172.05 142.285C172.05 141.354 172.419 140.462 173.078 139.803C173.736 139.145 174.629 138.775 175.559 138.775H281.701C282.632 138.775 283.525 139.145 284.183 139.803C284.841 140.462 285.211 141.354 285.211 142.285C285.211 143.216 284.841 144.109 284.183 144.767C283.525 145.425 282.632 145.795 281.701 145.795V145.795Z" fill="#E6E6E6"/>
<path d="M281.701 168.75H175.559C174.629 168.75 173.736 168.381 173.078 167.722C172.419 167.064 172.05 166.171 172.05 165.241C172.05 164.31 172.419 163.417 173.078 162.759C173.736 162.101 174.629 161.731 175.559 161.731H281.701C282.632 161.731 283.525 162.101 284.183 162.759C284.841 163.417 285.211 164.31 285.211 165.241C285.211 166.171 284.841 167.064 284.183 167.722C283.525 168.381 282.632 168.75 281.701 168.75V168.75Z" fill="#E6E6E6"/>
</g>
<defs>
<clipPath id="clip0_5_6">
<rect width="893.458" height="516.372" fill="white"/>
</clipPath>
</defs>
</svg>
